<?xml version="1.0" encoding="UTF-8"?>
<svg id="Layer_2" data-name="Layer 2" xmlns="http://www.w3.org/2000/svg" viewBox="0 0 446.77 348.62">
  <defs>
    <style>
      .cls-1 {
        fill: #57aaf2;
      }
    </style>
  </defs>
  <g id="Layer_1-2" data-name="Layer 1">
    <g>
      <path class="cls-1" d="M160.47,146.04c-5.47,0-9.51,4.47-9.75,9.75-.23,5.25,4.65,9.74,9.75,9.74,5.46,0,9.49-4.46,9.74-9.74,.24-5.27-4.65-9.75-9.74-9.75Z"/>
      <path class="cls-1" d="M271.39,146.04c-5.47,0-9.51,4.47-9.75,9.75-.23,5.25,4.65,9.74,9.75,9.74,5.46,0,9.49-4.46,9.74-9.74,.24-5.27-4.65-9.75-9.74-9.75Z"/>
      <path class="cls-1" d="M200.8,49.13c-59.94,10.01-106.36,65.18-106.36,125.83,0,8.41,.83,16.83,2.46,25.01l1.74,8.79-34.52,65.46s68.24-7.66,68.25-7.65c15.31,9.19,28.19,19.95,45.18,26.52,15.55,6.01,32.29,9.47,49,9.09,61.91-1.38,114.75-52.15,122.16-113.02,2.67-21.91-.92-43.87-9.43-63.71-22.87-53.34-81.1-85.92-138.48-76.33Zm-6.05,124c-1.43,12.72-9.4,25.64-21.83,28.67-8.36,2.06-17.54-.81-23.92-6.57-6.4-5.78-10.11-14.17-11.05-22.72-.47-4.23-.25-8.59,.69-12.77,1.41-6.38,4.48-12.35,9.23-16.81,22.49-21.16,49.71,5.15,46.88,30.2Zm105.11,17.38c-6.1,8.39-16.88,13.53-27.12,11.77-7.9-1.35-14.89-6.6-19.03-13.46-4.16-6.86-5.63-15.16-4.83-23.15,.19-1.99,.54-3.99,1.03-5.95,1.82-7.28,5.68-14.07,11.56-18.65,17.82-13.91,39.81,.1,44,19.71,2.17,10.16,.52,21.33-5.59,29.72Z"/>
      <path class="cls-1" d="M334.25,63.23v2.26l2.67,2.6,.08,.09c3.87,4.06,7.55,8.34,10.93,12.73l14.64-11.28c-3.33-4.33-6.92-8.56-10.68-12.6-1.75-4.66-6.36-9.47-14.89-15.83l-11.05,14.82c5.27,3.93,7.46,6.21,8.29,7.22Z"/>
      <path class="cls-1" d="M224.19,330.08c-.46,.01-.92,.02-1.39,.03-4.76,.09-9.5-.09-14.18-.51l-1.67,18.41c4.44,.4,8.97,.61,13.45,.61,.91,0,1.81,0,2.72-.02,.53,0,1.06-.02,1.59-.04,6.63-.19,13.39-.79,20.08-1.78l-2.71-18.29c-5.97,.88-11.99,1.42-17.9,1.59Z"/>
      <path class="cls-1" d="M259.85,324.82l4.73,17.87c11.84-3.14,23.65-7.52,35.11-13.03l-8.01-16.66c-10.41,5.01-21.13,8.99-31.84,11.82Z"/>
      <path class="cls-1" d="M151.25,332.16c12.03,5.75,23.65,9.87,35.53,12.61l4.16-18.01c-10.54-2.43-20.92-6.12-31.72-11.28l-7.97,16.68Z"/>
      <rect class="cls-1" x="11.81" y="257.25" width="35.76" height="18.49" transform="translate(-219.89 168.46) rotate(-62.2)"/>
      <rect class="cls-1" x="51.42" y="298.95" width="35.8" height="18.49" transform="translate(-33.92 9.65) rotate(-6.4)"/>
      <path class="cls-1" d="M131.14,299.32c-2.16-1.44-4.28-2.85-6.37-4.22l-3.28-2.14-3.37,.43-12.93,1.47,2.06,18.37,9.81-1.1c1.26,.83,2.54,1.68,3.82,2.54l.11,.07c4.27,2.84,8.53,5.52,12.65,7.96l9.41-15.91c-3.84-2.27-7.82-4.78-11.81-7.43l-.09-.06Z"/>
      <path class="cls-1" d="M444.88,299.39l-4.53-8.6-16.35,8.62,2.64,5-6.55-.73-2.06,18.37,10.59,1.19c.62,.07,1.24,.1,1.85,.1,8.99,0,16.31-7.33,16.31-16.34,0-2.63-.66-5.26-1.9-7.62Z"/>
      <rect class="cls-1" x="405.64" y="244.43" width="18.49" height="35.76" transform="translate(-74.45 223.77) rotate(-27.8)"/>
      <path class="cls-1" d="M325.24,292.98l-3.23,2.11c-1.82,1.19-3.64,2.4-5.48,3.63l-.97,.64c-2.55,1.7-5.16,3.35-7.76,4.92l9.53,15.84c2.84-1.71,5.69-3.52,8.48-5.37l.97-.65c.99-.66,1.97-1.31,2.95-1.96l14.6,1.64,2.06-18.37-16.83-1.89-4.32-.54Z"/>
      <path class="cls-1" d="M372.13,126.47l17.55-5.81c-1.55-4.69-3.32-9.36-5.27-13.88-3-7-6.51-13.87-10.42-20.42l-15.86,9.49c3.49,5.84,6.62,11.96,9.3,18.21,1.74,4.04,3.32,8.21,4.7,12.4Z"/>
      <rect class="cls-1" x="372.97" y="290.85" width="18.49" height="35.76" transform="translate(32.78 654.12) rotate(-83.6)"/>
      <path class="cls-1" d="M268.39,5.87c-12.08-3.3-24.62-5.28-37.26-5.87l-.86,18.47c11.29,.53,22.47,2.29,33.25,5.24l4.88-17.83Z"/>
      <path class="cls-1" d="M197.1,20.46l.25-.04c4.88-.81,9.86-1.4,14.81-1.75L210.88,.23c-5.53,.39-11.11,1.04-16.55,1.95l-.27,.04c-6.82,1.15-13.66,2.76-20.33,4.79l5.38,17.69c5.91-1.8,11.98-3.23,17.99-4.24Z"/>
      <path class="cls-1" d="M20.15,304.4l.43-.81-16.35-8.62-2.32,4.41c-1.24,2.35-1.9,4.99-1.9,7.62,0,9.01,7.32,16.34,16.31,16.34,.61,0,1.24-.04,1.86-.1l15.3-1.72-2.06-18.37-11.26,1.26Z"/>
      <path class="cls-1" d="M380.03,175.57c0,.65,0,1.29-.01,1.94l18.48,.23c0-.72,.01-1.45,.01-2.17,0-11.84-1.21-23.73-3.61-35.34l-18.1,3.73c2.14,10.38,3.23,21.01,3.23,31.61Z"/>
      <path class="cls-1" d="M377.12,205.45l-.73,3.68,13.02,24.7,16.35-8.62-9.99-18.94c.5-2.76,.93-5.55,1.29-8.32l-18.33-2.39c-.43,3.31-.98,6.65-1.62,9.89Z"/>
      <path class="cls-1" d="M162.2,31l-7.48-16.9c-11.38,5.04-22.35,11.4-32.59,18.9l10.93,14.91c9.17-6.72,18.97-12.41,29.14-16.91Z"/>
      <path class="cls-1" d="M310.59,45.61l9.96-15.57c-.86-.55-1.57-1-2.07-1.34-9.79-6.46-20.17-11.94-30.88-16.31l-6.98,17.12c9.59,3.91,18.9,8.83,27.68,14.62,.56,.37,1.34,.87,2.29,1.48Z"/>
      <path class="cls-1" d="M119.04,59.44l-12.51-13.61c-9.21,8.47-17.6,17.92-24.93,28.11l15,10.81c6.61-9.17,14.16-17.68,22.45-25.31Z"/>
      <path class="cls-1" d="M66.54,181.96c-.1-2.18-.15-4.39-.15-6.57,0-8.92,.85-17.96,2.53-26.87l-18.17-3.42c-1.89,10.04-2.85,20.23-2.85,30.29,0,2.47,.06,4.97,.17,7.43l18.46-.86Z"/>
      <path class="cls-1" d="M70.38,209.13l-.64-3.21-.13-.64c-.4-1.8-.76-3.64-1.08-5.45l-18.2,3.23c.19,1.09,.4,2.19,.62,3.28l-12.15,23.04,16.35,8.62,15.23-28.88Z"/>
      <path class="cls-1" d="M86.79,100.04l-16.09-9.11c-6.24,11.02-11.29,22.63-15.03,34.5l17.63,5.54c3.34-10.64,7.88-21.05,13.48-30.94Z"/>
      <path class="cls-1" d="M378.98,160.95c.02,.18,.04,.38,.05,.56v-.05c-.02-.17-.04-.33-.05-.51Z"/>
    </g>
  </g>
</svg>