<?xml version="1.0" encoding="UTF-8"?>
<svg id="Layer_2" data-name="Layer 2" xmlns="http://www.w3.org/2000/svg" viewBox="0 0 1544.01 347.81">
  <defs>
    <style>
      .cls-1 {
        fill: #fffef9;
      }

      .cls-1, .cls-2 {
        stroke-width: 0px;
      }

      .cls-2 {
        fill: #57aaf2;
      }
    </style>
  </defs>
  <g id="Layer_1-2" data-name="Layer 1">
    <g>
      <path class="cls-2" d="M708.56,95.44c26.51,0,48.01,15.4,58.04,34.76l43.71-21.5c-16.84-29.74-47.29-58.4-101.75-58.4-69.86,0-125.4,50.16-125.4,123.61s55.53,123.61,125.4,123.61c54.46,0,84.55-29.02,101.75-58.76l-43.71-21.14c-10.03,19.7-31.53,34.75-58.04,34.75-41.56,0-73.09-33.32-73.09-78.47s31.53-78.46,73.09-78.46Z"/>
      <rect class="cls-2" x="850.78" y="54.24" width="45.5" height="238.97"/>
      <path class="cls-2" d="M1032.77,115.86c-56.97,0-91.36,41.56-91.36,90.64s34.4,91,91.36,91,91.72-41.56,91.72-91-34.4-90.64-91.72-90.64ZM1032.77,257.02c-28.3,0-44.07-23.29-44.07-50.52s15.76-50.16,44.07-50.16,44.43,23.29,44.43,50.16-16.12,50.52-44.43,50.52Z"/>
      <path class="cls-2" d="M1243.07,115.86c-27.23,0-54.46,8.6-75.6,27.23l17.2,30.45c14.69-13.61,31.89-20.42,50.52-20.42,22.93,0,37.98,11.47,37.98,29.02v24.01c-11.47-13.97-31.89-21.14-54.82-21.14-27.59,0-60.19,14.69-60.19,55.18s32.6,57.33,60.19,57.33c22.57,0,42.99-8.24,54.82-22.21v17.91h45.5v-111.78c0-49.8-36.19-65.56-75.6-65.56ZM1273.16,251.65c-7.52,10.03-21.86,15.05-36.54,15.05-17.91,0-32.6-9.32-32.6-25.44s14.69-26.15,32.6-26.15c14.69,0,29.02,5.02,36.54,15.05v21.5Z"/>
      <polygon class="cls-2" points="1473.43 198.63 1541.86 120.16 1485.97 120.16 1420.4 197.19 1420.4 54.24 1374.9 54.24 1374.9 293.21 1420.4 293.21 1420.4 248.78 1441.18 226.57 1487.04 293.21 1544.01 293.21 1473.43 198.63"/>
    </g>
    <g>
      <path class="cls-2" d="M435.92,291.09l-8.85-16.78-.1-.19-16.24,8.56-16.68-31.63,16.25-8.57h0s-8.85-16.77-8.85-16.77l-.1-.2h0s-16.25,8.57-16.25,8.57l-13.02-24.7.73-3.68c.64-3.25,1.18-6.58,1.62-9.89l18.31,2.38h0c.86-7.04,1.27-13.8,1.32-20.2h0s-18.35-.24-18.35-.24c0-.65.01-1.29.01-1.94,0-10.59-1.09-21.23-3.23-31.61l18.02-3.72c-1.87-9.35-4.01-16.15-5.15-19.58,0,0,0,0,0-.01,0,0,0,0,0,0,0,0,0,0,0,.01l-17.55,5.81c-1.39-4.19-2.97-8.36-4.7-12.4-2.68-6.25-5.8-12.38-9.3-18.21l15.63-9.35c-3.73-5.55-7.46-11.1-11.18-16.64-.04-.05-.08-.1-.12-.15h0c-1.39,1.07-14.5,11.16-14.51,11.18-.79.6-6.34-7.25-6.81-7.87-2.38-3.19-4.53-6.69-7.09-9.79-.92-1.1-1.88-2.15-2.93-3.12-.4-.36-5.03-4.24-5.14-4.13.22-.31,7.8-10.47,10.26-13.77,0,0,0,0,0,0-4.7-4-9.92-8.01-15.69-11.92-.04-.02-.07-.05-.11-.07l-9.84,15.38c-.94-.6-1.72-1.1-2.29-1.48-8.78-5.79-18.1-10.71-27.68-14.62l6.88-16.87c-6.84-2.78-13.29-4.93-19.16-6.59h0l-4.83,17.65c-10.77-2.95-21.96-4.71-33.25-5.24l.86-18.47s0,0,.01,0v-.08c-7.08-.32-13.85-.18-20.26.31h0s1.29,18.44,1.29,18.44c-4.95.34-9.93.93-14.81,1.75l-.25.04c-6.01,1.01-12.08,2.44-17.99,4.24l-5.31-17.44s-.05,0-.07.02c-7.72,2.37-14.1,4.91-18.92,7.02l7.39,16.69c-10.17,4.5-19.97,10.19-29.14,16.91l-10.45-14.25h0s-.08.06-.12.09c-5.6,4.05-10.8,8.22-15.6,12.48l12.15,13.21c-8.28,7.62-15.84,16.14-22.45,25.31l-14.99-10.81s0,0,.01-.01c-.05-.02-.08-.06-.12-.09-2.89,3.92-6.69,9.58-10.76,17.12l16.07,9.1c-5.6,9.89-10.13,20.3-13.48,30.94l-17.27-5.43c-1.86,5.96-3.58,12.57-4.86,19.63l17.74,3.33c-1.68,8.92-2.53,17.96-2.53,26.88,0,2.18.05,4.39.15,6.57l-17.68.82c0,.12,0,.26.01.38.05,1.49.11,2.98.18,4.46,0,.07,0,.13,0,.2.16,3.34.32,6.68.62,10,.33,3.62.5,4.57.59,4.98.02.1.05.21.07.32,0-.02,0-.05-.01-.07l18.2-3.23c.32,1.81.68,3.64,1.08,5.45l.13.64.64,3.21-15.23,28.88-16.25-8.57-.11.19-8.84,16.78h0s16.25,8.57,16.25,8.57l-16.68,31.63-16.25-8.57-.11.2L0,295.26h0s16.26,8.58,16.26,8.58l-.42.81,11.26-1.26,2.06,18.37c7.36-.55,13.65-1.43,19.09-2.15l-2.06-18.37,35.58-3.99,2.06,18.37h0s0,0,0,.01c5.37-.6,11.69-1.31,19.19-2.16,0,0,0,0,0,0h-.09s-2.06-18.36-2.06-18.36l12.94-1.47,3.38-.43,3.28,2.14c2.09,1.36,4.21,2.77,6.37,4.22l.09.06c3.99,2.65,7.96,5.16,11.81,7.43l-9.41,15.91c-.13-.08-.26-.16-.39-.24.03.02.08.05.11.07.09.06.19.11.28.17,0,0,12.67,6.87,17.64,9.43v-.03s7.96-16.64,7.96-16.64c10.79,5.16,21.17,8.85,31.71,11.28l-4.05,17.59-.1-.02s.07.01.1.02c8.22,1.81,14.76,2.58,19.59,3.14.19.02.38.04.57.06,0,0,0-.01,0-.02-.01,0-.03,0-.04,0l1.63-17.93c4.67.42,9.41.59,14.17.51.47-.01.93-.02,1.39-.04,5.91-.16,11.93-.7,17.9-1.58l2.69,18.17c5.9-.9,12.8-2.22,19.8-4.02l-4.72-17.83c10.71-2.84,21.42-6.82,31.84-11.82l7.96,16.55s0,0,0,0c6.75-3.25,12.76-6.55,17.68-9.43l-9.53-15.83c2.6-1.57,5.22-3.22,7.76-4.92l.97-.64c1.84-1.23,3.66-2.44,5.48-3.63l3.23-2.11,4.32.54,16.83,1.89-2.06,18.37h0c0,.08,0,.17-.01.25h.02s19.06,2.14,19.06,2.14c.02-.08.03-.17.04-.25h-.03s2.06-18.37,2.06-18.37l35.54,3.99-2.04,18.16c0,.15.02.31.03.46,6.34.63,12.68,1.26,19.02,1.88h0l2.06-18.37,6.55.74-2.64-5,16.25-8.57h0ZM344.39,189.42c-7.4,60.87-60.25,111.64-122.15,113.02-16.71.37-33.46-3.08-49-9.09-16.99-6.57-29.88-17.34-45.18-26.53-.02,0-68.26,7.66-68.26,7.66l34.52-65.46-1.74-8.8c-1.63-8.18-2.46-16.61-2.46-25.01,0-60.66,46.42-115.82,106.36-125.83,57.39-9.59,115.62,22.98,138.49,76.32,8.5,19.85,12.09,41.81,9.42,63.72Z"/>
      <path class="cls-2" d="M374.71,161.71v.05c-.02-.19-.04-.38-.05-.56.02.18.04.34.05.51Z"/>
      <path class="cls-2" d="M257.14,141.33c-5.88,4.58-9.73,11.37-11.55,18.65-.49,1.95-.85,3.96-1.03,5.95-.79,7.98.67,16.29,4.83,23.14,4.15,6.86,11.14,12.11,19.04,13.46,10.24,1.75,21.02-3.38,27.12-11.77,6.11-8.39,7.76-19.56,5.59-29.72-4.19-19.61-26.18-33.62-44-19.71ZM267.08,165.77c-5.11,0-9.98-4.48-9.75-9.73.24-5.28,4.28-9.75,9.75-9.75,5.08,0,9.97,4.48,9.73,9.75-.24,5.28-4.28,9.73-9.73,9.73Z"/>
      <path class="cls-2" d="M143.56,143.17c-4.76,4.46-7.82,10.43-9.24,16.81-.94,4.18-1.16,8.54-.69,12.77.95,8.56,4.65,16.95,11.05,22.72,6.39,5.76,15.57,8.63,23.92,6.57,12.44-3.03,20.4-15.95,21.84-28.67,2.82-25.05-24.4-51.36-46.88-30.2ZM156.15,165.77c-5.1,0-9.97-4.48-9.74-9.73.24-5.28,4.27-9.75,9.74-9.75,5.09,0,9.98,4.48,9.74,9.75-.24,5.28-4.28,9.73-9.74,9.73Z"/>
      <path class="cls-1" d="M374.71,161.71c-.02-.17-.04-.33-.05-.51.02.19.04.38.05.56v-.05Z"/>
    </g>
  </g>
</svg>